<mxfile host="app.diagrams.net" modified="2024-07-20T20:01:49.734Z" agent="Mozilla/5.0 (Macintosh; Intel Mac OS X 10_15_7) AppleWebKit/537.36 (KHTML, like Gecko) Chrome/126.0.0.0 Safari/537.36" version="24.7.2" etag="XKSnjNS8au1rn9IXqpW5" type="github">
  <diagram name="Page-1" id="S4QUIuVWI5KVTmpPaMFL">
    <mxGraphModel>
      <root>
        <mxCell id="0" />
        <mxCell id="1" parent="0" />
        <mxCell id="2" value="website" style="ellipse;aspect=fixed;strokeWidth=2;whiteSpace=wrap;" vertex="1" parent="1">
          <mxGeometry x="211" y="175" width="76" height="76" as="geometry" />
        </mxCell>
        <mxCell id="3" value="Media   " style="rounded=1;absoluteArcSize=1;arcSize=14;whiteSpace=wrap;strokeWidth=2;" vertex="1" parent="1">
          <mxGeometry x="234" y="294" width="62" height="38" as="geometry" />
        </mxCell>
        <mxCell id="4" value="video" style="rounded=1;absoluteArcSize=1;arcSize=14;whiteSpace=wrap;strokeWidth=2;" vertex="1" parent="1">
          <mxGeometry x="280" y="94" width="59" height="38" as="geometry" />
        </mxCell>
        <mxCell id="5" value="audio" style="rounded=1;absoluteArcSize=1;arcSize=14;whiteSpace=wrap;strokeWidth=2;" vertex="1" parent="1">
          <mxGeometry x="348" y="147" width="59" height="38" as="geometry" />
        </mxCell>
        <mxCell id="6" value="image" style="rounded=1;absoluteArcSize=1;arcSize=14;whiteSpace=wrap;strokeWidth=2;" vertex="1" parent="1">
          <mxGeometry x="118" y="106" width="63" height="38" as="geometry" />
        </mxCell>
        <mxCell id="7" value="Pages   " style="rounded=1;absoluteArcSize=1;arcSize=14;whiteSpace=wrap;strokeWidth=2;" vertex="1" parent="1">
          <mxGeometry x="104" y="15" width="60" height="38" as="geometry" />
        </mxCell>
        <mxCell id="8" value="home" style="rounded=1;absoluteArcSize=1;arcSize=14;whiteSpace=wrap;strokeWidth=2;" vertex="1" parent="1">
          <mxGeometry x="152" y="279" width="59" height="38" as="geometry" />
        </mxCell>
        <mxCell id="9" value="about" style="rounded=1;absoluteArcSize=1;arcSize=14;whiteSpace=wrap;strokeWidth=2;" vertex="1" parent="1">
          <mxGeometry x="201" y="116" width="61" height="38" as="geometry" />
        </mxCell>
        <mxCell id="10" value="contact" style="rounded=1;absoluteArcSize=1;arcSize=14;whiteSpace=wrap;strokeWidth=2;" vertex="1" parent="1">
          <mxGeometry x="319" y="273" width="74" height="38" as="geometry" />
        </mxCell>
        <mxCell id="11" value="Features   " style="rounded=1;absoluteArcSize=1;arcSize=14;whiteSpace=wrap;strokeWidth=2;" vertex="1" parent="1">
          <mxGeometry x="447" y="301" width="82" height="38" as="geometry" />
        </mxCell>
        <mxCell id="12" value="navigation" style="rounded=1;absoluteArcSize=1;arcSize=14;whiteSpace=wrap;strokeWidth=2;" vertex="1" parent="1">
          <mxGeometry x="53" y="230" width="94" height="38" as="geometry" />
        </mxCell>
        <mxCell id="13" value="search" style="rounded=1;absoluteArcSize=1;arcSize=14;whiteSpace=wrap;strokeWidth=2;" vertex="1" parent="1">
          <mxGeometry x="348" y="210" width="67" height="38" as="geometry" />
        </mxCell>
        <mxCell id="14" value="mobile friendly" style="rounded=1;absoluteArcSize=1;arcSize=14;whiteSpace=wrap;strokeWidth=2;" vertex="1" parent="1">
          <mxGeometry x="15" y="162" width="129" height="38" as="geometry" />
        </mxCell>
        <mxCell id="15" style="endArrow=none" edge="1" parent="1" source="2" target="3">
          <mxGeometry relative="1" as="geometry" />
        </mxCell>
        <mxCell id="16" style="endArrow=none" edge="1" parent="1" source="2" target="4">
          <mxGeometry relative="1" as="geometry" />
        </mxCell>
        <mxCell id="17" style="endArrow=none" edge="1" parent="1" source="2" target="5">
          <mxGeometry relative="1" as="geometry" />
        </mxCell>
        <mxCell id="18" style="endArrow=none" edge="1" parent="1" source="2" target="6">
          <mxGeometry relative="1" as="geometry" />
        </mxCell>
        <mxCell id="19" style="endArrow=none" edge="1" parent="1" source="2" target="8">
          <mxGeometry relative="1" as="geometry" />
        </mxCell>
        <mxCell id="20" style="endArrow=none" edge="1" parent="1" source="2" target="9">
          <mxGeometry relative="1" as="geometry" />
        </mxCell>
        <mxCell id="21" style="endArrow=none" edge="1" parent="1" source="2" target="10">
          <mxGeometry relative="1" as="geometry" />
        </mxCell>
        <mxCell id="22" style="endArrow=none" edge="1" parent="1" source="2" target="12">
          <mxGeometry relative="1" as="geometry" />
        </mxCell>
        <mxCell id="23" style="endArrow=none" edge="1" parent="1" source="2" target="13">
          <mxGeometry relative="1" as="geometry" />
        </mxCell>
        <mxCell id="24" style="endArrow=none" edge="1" parent="1" source="2" target="14">
          <mxGeometry relative="1" as="geometry" />
        </mxCell>
        <mxCell id="25" style="endArrow=none" edge="1" parent="1" source="6" target="7">
          <mxGeometry relative="1" as="geometry" />
        </mxCell>
        <mxCell id="26" style="endArrow=none" edge="1" parent="1" source="10" target="11">
          <mxGeometry relative="1" as="geometry" />
        </mxCell>
      </root>
    </mxGraphModel>
  </diagram>
</mxfile>
